<svg xmlns="http://www.w3.org/2000/svg" width="200" height="90" fill="none" viewBox="0 0 200 90">
  <path stroke="#EB0000" stroke-width="4" d="M29 75.69C2.662 71.793 5.5 53.19 4 46.19c17.5-9.5-12-21.647 12.5-20 9.587-.418 13.255-.756 15.065-1.647C89 4.69 107.464 1.656 142.437 28.43c24.582.984 40.246 6.03 48.357 11.654 4.411 3.058 5.5 5.303 5.706 7.761m0 0s-6.908 3.177-13.385.864c-6.476-2.313-9.93-8.625-9.93-8.625m23.315 7.761-3.022 3.034C199.522 63.82 192.322 67.266 180 72.69c-6.815 3-12.5 4.5-18 4.5"/>
  <path fill="#EB0000" stroke="#EB0000" d="m113.909 78.25 5.119-27.498h10.239l-.931 3.866c9.309-6.445 17.22-6.015 20.013 0l-5.12 23.633h-7.446l3.258-17.617c-.931-6.016-8.843-4.726-12.566 0l-3.258 17.617h-9.308Zm47.471-35.661h-8.842l-5.12 25.78c-1.059 7.711-.471 9.796 2.327 10.313h12.566V75.69c-5.439.486-6.515-2.594-5.119-8.18l1.861-10.312 7.447-.43v-6.015l-6.05-.43.93-7.734Z"/>
  <path fill="#EB0000" d="M30.986 47.69H41.5l-7.5 31-10.5-2 7.486-29Z"/>
  <ellipse cx="7.765" cy="8.778" fill="#EB0000" rx="7.765" ry="8.778" transform="matrix(.88247 .47038 -.53022 .84786 36.204 26.69)"/>
  <path fill="#EB0000" stroke="#EB0000" d="m45.494 78.251 8.377-40.39 9.308.154 1.862.03 14.893.246C93.896 40.01 93.43 58.916 76.21 62.353l9.308 15.898H72.953L65.04 63.212h-6.05l-3.258 15.039h-10.24Z"/>
  <path fill="#fff" stroke="#EB0000" d="m65 39.5-6 24L78.5 49 65 39.5Z"/>
  <path fill="#EB0000" stroke="#EB0000" d="m114.374 67.08 2.327-12.89c-3.258-3.867-9.055-4.48-15.358-3.868-8.843.86-13.962 4.297-16.755 14.18v5.585c0 15.04 28.855 15.898 28.855 0h-5.584c-3.258 6.016-14.893 4.727-13.963-3.007h20.478Z"/>
  <path fill="#fff" stroke="#EB0000" d="M94.827 61.925c1.396-8.164 15.824-8.164 15.824 0H94.827Z"/>
</svg>
