<svg xmlns="http://www.w3.org/2000/svg" width="338" height="135" fill="none" viewBox="0 0 338 135">
  <path stroke="#C60302" stroke-width="4" d="M46.857 123.326C1.707 116.645 6.571 84.754 4 72.754 34 56.47-16.571 35.645 25.428 38.47c16.434-.717 22.723-1.297 25.826-2.824 98.46-34.033 130.112-39.234 190.066 6.662 42.141 1.686 68.995 10.338 82.899 19.979 7.56 5.242 9.429 9.09 9.781 13.304m0 0s-11.843 5.446-22.945 1.48c-11.103-3.965-17.024-14.784-17.024-14.784M334 75.59l-5.181 5.2c10.362 22.186-1.981 28.095-23.105 37.393-11.683 5.143-21.428 7.714-30.857 7.714"/>
  <path fill="#C60302" d="M75.48 89.2h4.24v37.24h-4.24V89.2Zm-5.08 13.16h13.16v4.48H70.4v-4.48Zm5.04 2.36 2.68 1.32a74.528 74.528 0 0 1-1.16 4.24 70.537 70.537 0 0 1-1.44 4.4 50.017 50.017 0 0 1-1.72 4.16c-.587 1.307-1.2 2.44-1.84 3.4a14.67 14.67 0 0 0-.64-1.64 21.834 21.834 0 0 0-.8-1.8 12.027 12.027 0 0 0-.8-1.56c.8-.987 1.56-2.2 2.28-3.64a45.607 45.607 0 0 0 2-4.52c.613-1.573 1.093-3.027 1.44-4.36Zm4.4 2.44c.24.267.6.72 1.08 1.36a62.49 62.49 0 0 1 1.6 2.12c.587.747 1.12 1.453 1.6 2.12.48.64.813 1.107 1 1.4l-3.04 3.68a36.855 36.855 0 0 0-.92-2.04 34.97 34.97 0 0 0-1.2-2.48 49.415 49.415 0 0 0-1.28-2.4l-1.08-1.96 2.24-1.8Zm-9.48-14.88 3.12-.76c.347.933.653 1.96.92 3.08.293 1.093.533 2.16.72 3.2.187 1.013.307 1.933.36 2.76l-3.32.84a19.595 19.595 0 0 0-.32-2.8c-.16-1.04-.373-2.12-.64-3.24-.24-1.12-.52-2.147-.84-3.08Zm11.08-1 3.8.8a702.38 702.38 0 0 0-1 3.28c-.347 1.12-.693 2.2-1.04 3.24-.32 1.013-.64 1.92-.96 2.72l-2.84-.84c.267-.827.533-1.773.8-2.84s.507-2.16.72-3.28c.24-1.12.413-2.147.52-3.08Zm4.28.68h20.88v3.4H85.72v-3.4Zm1 5h19v3.2h-19v-3.2Zm-2.12 4.96h23.04v3.44H84.6v-3.44Zm8.92-12.84h4.52v14.76h-4.52V89.08ZM86.72 107h15.2v3.4H91.16v16.2h-4.44V107Zm14.08 0h4.52v15.28c0 .987-.12 1.76-.36 2.32-.24.56-.707 1-1.4 1.32-.693.293-1.52.48-2.48.56-.96.08-2.08.107-3.36.08-.08-.587-.24-1.24-.48-1.96a15.38 15.38 0 0 0-.76-1.84l2.2.08c.72 0 1.213-.013 1.48-.04.267 0 .44-.04.52-.12.08-.107.12-.267.12-.48V107Zm-11.6 5.32h13.16v3.16H89.2v-3.16Zm0 5.08h13.16v3.12H89.2v-3.12Zm29.92-12.8v14.76h-4.48v-10.32h-4.16v-4.44h8.64Zm0 12.88a6.985 6.985 0 0 0 3.32 3c1.467.64 3.227 1 5.28 1.08 1.253.053 2.747.093 4.48.12a390.266 390.266 0 0 0 11.08-.16c1.84-.08 3.467-.187 4.88-.32-.16.373-.347.827-.56 1.36-.187.507-.36 1.04-.52 1.6a17.79 17.79 0 0 0-.36 1.56c-1.28.053-2.747.093-4.4.12-1.653.053-3.373.08-5.16.08-1.76.027-3.453.027-5.08 0-1.627-.027-3.08-.067-4.36-.12-2.427-.107-4.493-.493-6.2-1.16-1.68-.667-3.133-1.787-4.36-3.36-.747.8-1.533 1.6-2.36 2.4-.8.8-1.68 1.64-2.64 2.52l-2.28-4.56a60.824 60.824 0 0 0 2.6-1.96 53.5 53.5 0 0 0 2.6-2.2h4.04Zm-8.92-25.16 3.8-2.36c.72.613 1.44 1.32 2.16 2.12a31.618 31.618 0 0 1 2.04 2.32c.613.773 1.093 1.493 1.44 2.16l-4.08 2.68c-.293-.64-.733-1.36-1.32-2.16a31.927 31.927 0 0 0-1.96-2.48 35.31 35.31 0 0 0-2.08-2.28Zm11.32 13.08h24.56v3.48h-24.56v-3.48Zm-1.16 6.16h26.96v3.52h-26.96v-3.52Zm6.52-8.32h4.48v10.04h-4.48v-10.04Zm9.12 0h4.56v10.04H136v-10.04Zm-13.36-8.32h5.84v-1.64h-7.64v-3.04h11.68V98h-9.88v-3.08Zm-1.2 0h3.92v3.88c0 .427.08.707.24.84.16.107.48.16.96.16h3.08c.427 0 .707-.093.84-.28.133-.187.227-.6.28-1.24.373.24.88.48 1.52.72.667.213 1.28.373 1.84.48-.213 1.36-.627 2.28-1.24 2.76-.587.48-1.493.72-2.72.72H126c-1.2 0-2.133-.107-2.8-.32a2.304 2.304 0 0 1-1.36-1.28c-.267-.613-.4-1.453-.4-2.52v-3.92Zm14.32 0h5.88v-1.64h-7.76v-3.04h11.84V98h-9.96v-3.08Zm-1.16 0h3.92v3.88c0 .427.08.707.24.84.16.107.493.16 1 .16H143c.427 0 .693-.093.8-.28.133-.187.24-.627.32-1.32.373.267.88.52 1.52.76.667.213 1.28.373 1.84.48-.213 1.387-.627 2.32-1.24 2.8-.587.48-1.493.72-2.72.72h-4.32c-1.2 0-2.133-.107-2.8-.32-.667-.24-1.133-.667-1.4-1.28-.267-.613-.4-1.453-.4-2.52v-3.92Zm.76 21.88 3.52-2c.96.427 1.96.92 3 1.48 1.04.533 2.027 1.08 2.96 1.64a36.876 36.876 0 0 1 2.4 1.48l-4.92 1.8c-.747-.64-1.773-1.36-3.08-2.16a44.023 44.023 0 0 0-3.88-2.24Zm-7.04-1.96 4.2 1.44c-1.013.96-2.28 1.88-3.8 2.76-1.52.88-2.973 1.6-4.36 2.16a9.647 9.647 0 0 0-1.04-.96c-.4-.373-.827-.733-1.28-1.08-.453-.347-.84-.64-1.16-.88a40.343 40.343 0 0 0 4.12-1.52c1.36-.613 2.467-1.253 3.32-1.92Zm24.2-18.88h33.04v20.08h-5.04v-15.36h-23.2v15.56h-4.8V95.96Zm2.48 13.36h28.32v4.72H155v-4.72ZM166.36 89h5.08v37.56h-5.08V89Zm24.4 6.84h36.52v4.68h-36.52v-4.68Zm6.92 24.28h22.48v4.6h-22.48v-4.6ZM206.4 89h5.24v21.32h-5.24V89Zm-11.56 18.72h28.4v18.68H218v-14.12h-18.16v14.28h-5v-18.84Zm36.96-15.4h34.36v4.32H231.8v-4.32Zm-1 24.56h36.56v4.36H230.8v-4.36Zm15.56-27.84h4.96v37.6h-4.96v-37.6Zm-6.92 19.4v2.44h18.88v-2.44h-18.88Zm0-6v2.4h18.88v-2.4h-18.88Zm-4.64-3.88h28.36v16.2H234.8v-16.2Z"/>
</svg>
