<svg xmlns="http://www.w3.org/2000/svg" width="228" height="106" fill="none" viewBox="0 0 228 106">
  <path stroke="#FF7000" stroke-width="4" d="M32.571 85.217C2.471 80.764 5.714 59.503 4 51.503c20-10.857-13.714-24.74 14.286-22.857 10.956-.478 15.148-.865 17.217-1.883 65.64-22.688 86.741-26.156 126.71 4.441 28.094 1.125 45.997 6.893 55.266 13.32 5.041 3.495 6.286 6.06 6.521 8.87m0 0s-7.895 3.63-15.297.986c-7.402-2.643-11.349-9.856-11.349-9.856M224 53.394l-3.454 3.466c6.908 14.79-1.321 18.73-15.403 24.929-7.789 3.428-14.286 5.142-20.572 5.142"/>
  <path fill="#ACACAC" d="M34.184 59.96h3.392v29.792h-3.392V59.96ZM30.12 70.488h10.528v3.584H30.12v-3.584Zm4.032 1.888 2.144 1.056a59.573 59.573 0 0 1-.928 3.392 56.35 56.35 0 0 1-1.152 3.52 40.014 40.014 0 0 1-1.376 3.328c-.47 1.045-.96 1.952-1.472 2.72a11.748 11.748 0 0 0-.512-1.312c-.192-.49-.405-.97-.64-1.44a9.582 9.582 0 0 0-.64-1.248c.64-.79 1.248-1.76 1.824-2.912a36.486 36.486 0 0 0 1.6-3.616 31.61 31.61 0 0 0 1.152-3.488Zm3.52 1.952c.192.213.48.576.864 1.088.405.512.832 1.077 1.28 1.696a50.9 50.9 0 0 1 1.28 1.696c.384.512.65.885.8 1.12l-2.432 2.944a29.641 29.641 0 0 0-.736-1.632 27.78 27.78 0 0 0-.96-1.984 39.254 39.254 0 0 0-1.024-1.92c-.341-.619-.63-1.141-.864-1.568l1.792-1.44Zm-7.584-11.904 2.496-.608c.277.747.523 1.568.736 2.464.235.875.427 1.728.576 2.56.15.81.245 1.547.288 2.208l-2.656.672a15.68 15.68 0 0 0-.256-2.24 32.64 32.64 0 0 0-.512-2.592 21.51 21.51 0 0 0-.672-2.464Zm8.864-.8 3.04.64c-.256.832-.523 1.707-.8 2.624-.277.896-.555 1.76-.832 2.592-.256.81-.512 1.536-.768 2.176l-2.272-.672c.213-.661.427-1.419.64-2.272.213-.853.405-1.728.576-2.624.192-.896.33-1.717.416-2.464Zm3.424.544H59.08v2.72H42.376v-2.72Zm.8 4h15.2v2.56h-15.2v-2.56Zm-1.696 3.968h18.432v2.752H41.48v-2.752Zm7.136-10.272h3.616v11.808h-3.616V59.864ZM43.176 74.2h12.16v2.72h-8.608v12.96h-3.552V74.2Zm11.264 0h3.616v12.224c0 .79-.096 1.408-.288 1.856-.192.448-.565.8-1.12 1.056-.555.235-1.216.384-1.984.448a26.26 26.26 0 0 1-2.688.064 8.764 8.764 0 0 0-.384-1.568 12.313 12.313 0 0 0-.608-1.472l1.76.064c.576 0 .97-.01 1.184-.032.213 0 .352-.032.416-.096.064-.085.096-.213.096-.384V74.2Zm-9.28 4.256h10.528v2.528H45.16v-2.528Zm0 4.064h10.528v2.496H45.16V82.52Zm23.936-10.24v11.808h-3.584v-8.256h-3.328V72.28h6.912Zm0 10.304a5.59 5.59 0 0 0 2.656 2.4c1.173.512 2.581.8 4.224.864 1.003.043 2.197.075 3.584.096a316.814 316.814 0 0 0 8.864-.128 78.25 78.25 0 0 0 3.904-.256c-.128.299-.277.661-.448 1.088-.15.405-.288.832-.416 1.28-.128.47-.224.885-.288 1.248a136.57 136.57 0 0 1-3.52.096 127.24 127.24 0 0 1-4.128.064 139.356 139.356 0 0 1-7.552-.096c-1.941-.085-3.595-.395-4.96-.928-1.344-.533-2.507-1.43-3.488-2.688-.597.64-1.227 1.28-1.888 1.92-.64.64-1.344 1.312-2.112 2.016l-1.824-3.648a48.41 48.41 0 0 0 2.08-1.568 42.97 42.97 0 0 0 2.08-1.76h3.232ZM61.96 62.456 65 60.568a18.34 18.34 0 0 1 1.728 1.696 25.437 25.437 0 0 1 1.632 1.856c.49.619.875 1.195 1.152 1.728l-3.264 2.144c-.235-.512-.587-1.088-1.056-1.728a25.47 25.47 0 0 0-1.568-1.984 28.28 28.28 0 0 0-1.664-1.824Zm9.056 10.464h19.648v2.784H71.016V72.92Zm-.928 4.928h21.568v2.816H70.088v-2.816Zm5.216-6.656h3.584v8.032h-3.584v-8.032Zm7.296 0h3.648v8.032H82.6v-8.032Zm-10.688-6.656h4.672v-1.312h-6.112v-2.432h9.344V67h-7.904v-2.464Zm-.96 0h3.136v3.104c0 .341.064.565.192.672.128.085.384.128.768.128h2.464c.341 0 .565-.075.672-.224.107-.15.181-.48.224-.992.299.192.704.384 1.216.576.533.17 1.024.299 1.472.384-.17 1.088-.501 1.824-.992 2.208-.47.384-1.195.576-2.176.576H74.6c-.96 0-1.707-.085-2.24-.256a1.841 1.841 0 0 1-1.088-1.024c-.213-.49-.32-1.163-.32-2.016v-3.136Zm11.456 0h4.704v-1.312h-6.208v-2.432h9.472V67h-7.968v-2.464Zm-.928 0h3.136v3.104c0 .341.064.565.192.672.128.085.395.128.8.128H88.2c.341 0 .555-.075.64-.224.107-.15.192-.501.256-1.056.299.213.704.416 1.216.608.533.17 1.024.299 1.472.384-.17 1.11-.501 1.856-.992 2.24-.47.384-1.195.576-2.176.576H85.16c-.96 0-1.707-.085-2.24-.256-.533-.192-.907-.533-1.12-1.024-.213-.49-.32-1.163-.32-2.016v-3.136Zm.608 17.504 2.816-1.6c.768.341 1.568.736 2.4 1.184.832.427 1.621.864 2.368 1.312.747.427 1.387.821 1.92 1.184l-3.936 1.44c-.597-.512-1.419-1.088-2.464-1.728a35.262 35.262 0 0 0-3.104-1.792Zm-5.632-1.568 3.36 1.152c-.81.768-1.824 1.504-3.04 2.208a27.736 27.736 0 0 1-3.488 1.728 7.657 7.657 0 0 0-.832-.768 13.64 13.64 0 0 0-1.024-.864 129.34 129.34 0 0 0-.928-.704 32.3 32.3 0 0 0 3.296-1.216c1.088-.49 1.973-1.003 2.656-1.536Zm19.36-15.104h26.432v16.064h-4.032V69.144h-18.56v12.448h-3.84V65.368ZM97.8 76.056h22.656v3.776H97.8v-3.776Zm9.088-16.256h4.064v30.048h-4.064V59.8Zm19.52 5.472h29.216v3.744h-29.216v-3.744Zm5.536 19.424h17.984v3.68h-17.984v-3.68ZM138.92 59.8h4.192v17.056h-4.192V59.8Zm-9.248 14.976h22.72V89.72H148.2V78.424h-14.528v11.424h-4V74.776Zm29.568-12.32h27.488v3.456H159.24v-3.456Zm-.8 19.648h29.248v3.488H158.44v-3.488Zm12.448-22.272h3.968v30.08h-3.968v-30.08Zm-5.536 15.52v1.952h15.104v-1.952h-15.104Zm0-4.8v1.92h15.104v-1.92h-15.104Zm-3.712-3.104h22.688v12.96H161.64v-12.96Z"/>
</svg>
