<svg xmlns="http://www.w3.org/2000/svg" width="338" height="135" fill="none" viewBox="0 0 338 135">
  <path stroke="#C60302" stroke-width="4" d="M46.857 123.326C1.707 116.645 6.571 84.754 4 72.754 34 56.47-16.571 35.645 25.428 38.47c16.434-.717 22.723-1.297 25.826-2.824 98.46-34.033 130.112-39.234 190.066 6.662 42.141 1.686 68.995 10.338 82.899 19.979 7.56 5.242 9.429 9.09 9.781 13.304m0 0s-11.843 5.446-22.945 1.48c-11.103-3.965-17.024-14.784-17.024-14.784M334 75.59l-5.181 5.2c10.362 22.186-1.981 28.095-23.105 37.393-11.683 5.143-21.428 7.714-30.857 7.714"/>
  <path fill="#C60302" d="M81.422 123v-20.703h4.863V123h-4.863Zm2.422-23.672c-.755 0-1.393-.26-1.914-.781a2.558 2.558 0 0 1-.782-1.875c0-.742.26-1.367.782-1.875.52-.521 1.158-.781 1.914-.781.768 0 1.413.26 1.933.78a2.52 2.52 0 0 1 .782 1.876c0 .729-.26 1.354-.782 1.875-.52.52-1.165.781-1.933.781ZM90.914 123V94.816h11.25c2.005 0 3.731.358 5.176 1.075 1.445.703 2.558 1.712 3.34 3.027.781 1.315 1.172 2.878 1.172 4.687v.04c0 1.901-.482 3.567-1.446 5-.95 1.432-2.239 2.447-3.867 3.046L112.691 123h-5.742l-5.547-10.547h-5.449V123h-5.039Zm5.04-14.531h5.683c1.601 0 2.845-.417 3.73-1.25.886-.847 1.328-2.025 1.328-3.535v-.039c0-1.472-.462-2.631-1.386-3.477-.925-.86-2.181-1.29-3.77-1.29h-5.586v9.591Zm28.456 14.941c-2.07 0-3.854-.436-5.351-1.308-1.485-.873-2.624-2.11-3.418-3.711-.795-1.602-1.192-3.496-1.192-5.684v-.019c0-2.175.397-4.07 1.192-5.684.807-1.628 1.933-2.891 3.379-3.789 1.458-.899 3.177-1.348 5.156-1.348 1.966 0 3.665.436 5.097 1.309 1.446.859 2.553 2.07 3.321 3.633.781 1.562 1.172 3.385 1.172 5.468v1.563h-16.914v-3.242h14.589l-2.343 3.027v-1.875c0-1.354-.209-2.48-.625-3.379-.417-.898-.99-1.569-1.719-2.012-.729-.455-1.569-.683-2.52-.683-.963 0-1.823.234-2.578.703-.742.456-1.328 1.139-1.758 2.051-.416.911-.625 2.018-.625 3.32v1.875c0 1.263.209 2.344.625 3.242.43.886 1.036 1.569 1.817 2.051.781.469 1.712.703 2.793.703.807 0 1.517-.124 2.129-.371.612-.26 1.113-.592 1.504-.996.403-.404.683-.84.839-1.309l.04-.136h4.531l-.039.214a7.758 7.758 0 0 1-.938 2.344c-.456.755-1.067 1.439-1.836 2.051-.768.612-1.679 1.1-2.734 1.465-1.055.351-2.253.527-3.594.527Zm12.461-.41v-20.703h4.844v3.242h.117a6.312 6.312 0 0 1 2.383-2.676c1.068-.664 2.383-.996 3.945-.996 2.279 0 4.037.69 5.274 2.071 1.25 1.38 1.875 3.268 1.875 5.664V123h-4.864v-12.422c0-1.471-.345-2.604-1.035-3.398-.69-.808-1.725-1.211-3.105-1.211-.925 0-1.732.215-2.422.644a4.2 4.2 0 0 0-1.602 1.758c-.377.742-.566 1.615-.566 2.617V123h-4.844Zm30.02.41c-2.149 0-3.75-.469-4.805-1.406-1.042-.938-1.563-2.474-1.563-4.609v-11.348h-2.929v-3.75h2.929v-5.254h4.942v5.254h3.847v3.75h-3.847v10.957c0 1.003.221 1.699.664 2.09.456.377 1.12.566 1.992.566.247 0 .462-.006.645-.019a9.91 9.91 0 0 1 .546-.059v3.652c-.286.039-.638.078-1.054.118-.404.039-.86.058-1.367.058Zm26.856-2.49h23.64v4.44h-23.64v-4.44Zm6-20.08h11.48v4.32h-11.48v-4.32Zm0 9.96h11.48v4.32h-11.48v-4.32Zm-2.24-19.76h16.44v32.44h-4.84v-28h-6.96v28h-4.64V91.04Zm-11.48 1.72h4.56v33.8h-4.56v-33.8Zm-6.04 7.52h15.6v4.44h-15.6v-4.44Zm6.28 1.8 2.8 1.2a59.87 59.87 0 0 1-1.36 4.48 60.006 60.006 0 0 1-1.72 4.6 44.41 44.41 0 0 1-2 4.24c-.72 1.333-1.467 2.493-2.24 3.48-.24-.693-.587-1.467-1.04-2.32a27.279 27.279 0 0 0-1.2-2.24c.907-1.067 1.8-2.373 2.68-3.92.88-1.547 1.68-3.16 2.4-4.84.72-1.68 1.28-3.24 1.68-4.68Zm6.96-12.72 2.68 3.92c-1.387.507-2.893.96-4.52 1.36-1.6.4-3.24.747-4.92 1.04-1.68.267-3.307.493-4.88.68-.08-.533-.253-1.147-.52-1.84-.267-.72-.52-1.347-.76-1.88 1.547-.24 3.093-.52 4.64-.84a91.87 91.87 0 0 0 4.48-1.12 38.698 38.698 0 0 0 3.8-1.32Zm-2.64 15.84c.267.267.653.707 1.16 1.32a264.74 264.74 0 0 1 1.64 1.92 42.9 42.9 0 0 1 1.64 1.96c.48.587.827 1.013 1.04 1.28l-2.8 3.76c-.24-.533-.56-1.173-.96-1.92-.4-.773-.84-1.56-1.32-2.36a68.73 68.73 0 0 0-1.4-2.24c-.427-.72-.8-1.32-1.12-1.8l2.12-1.92Zm30.92-12.88h34.36v4.32h-34.36v-4.32Zm-1 24.56h36.56v4.36h-36.56v-4.36Zm15.56-27.84h4.96v37.6h-4.96v-37.6Zm-6.92 19.4v2.44h18.88v-2.44h-18.88Zm0-6v2.4h18.88v-2.4h-18.88Zm-4.64-3.88h28.36v16.2h-28.36v-16.2Z"/>
</svg>
