<svg xmlns="http://www.w3.org/2000/svg" width="228" height="106" fill="none" viewBox="0 0 228 106">
  <path stroke="#FF7000" stroke-width="4" d="M32.571 85.217C2.471 80.764 5.714 59.503 4 51.503c20-10.857-13.714-24.74 14.286-22.857 10.956-.478 15.148-.865 17.217-1.883 65.64-22.688 86.741-26.156 126.71 4.441 28.094 1.125 45.997 6.893 55.266 13.32 5.041 3.495 6.286 6.06 6.521 8.87m0 0s-7.895 3.63-15.297.986c-7.402-2.643-11.349-9.856-11.349-9.856M224 53.394l-3.454 3.466c6.908 14.79-1.321 18.73-15.403 24.929-7.789 3.428-14.286 5.142-20.572 5.142"/>
  <path fill="#ACACAC" d="M43.624 62.36h16.448v3.68H43.624v-3.68Zm7.008 1.472h3.904v21.472c0 1.088-.128 1.92-.384 2.496-.256.597-.725 1.056-1.408 1.376-.661.299-1.515.49-2.56.576-1.024.085-2.261.117-3.712.096a5.193 5.193 0 0 0-.256-1.248c-.15-.47-.31-.939-.48-1.408a9.933 9.933 0 0 0-.544-1.248l1.92.064c.64.021 1.195.032 1.664.032.49-.021.832-.032 1.024-.032.299 0 .512-.043.64-.128.128-.107.192-.31.192-.608v-21.44Zm-19.104 5.792h10.336v2.912H31.528v-2.912Zm.192-8.8h10.176v2.88H31.72v-2.88Zm-.192 13.184h10.336v2.88H31.528v-2.88Zm-1.568-8.896h13.152v3.04H29.96v-3.04Zm3.328 13.312h8.48v9.76h-8.48v-3.04h5.088v-3.68h-5.088v-3.04Zm-1.856 0h3.328v11.008h-3.328V78.424Zm42.336.704v1.696h6.08v-1.696h-6.08Zm-2.976-2.176h12.192v6.08H70.792v-6.08Zm6.528 5.088h3.136v3.552c0 .341.021.555.064.64.064.085.192.128.384.128h.928c.128 0 .224-.043.288-.128.085-.107.15-.288.192-.544.043-.277.075-.704.096-1.28.277.256.683.49 1.216.704.555.192 1.045.33 1.472.416-.15 1.365-.448 2.293-.896 2.784-.427.49-1.077.736-1.952.736h-1.92c-.832 0-1.472-.107-1.92-.32-.427-.213-.715-.576-.864-1.088-.15-.49-.224-1.163-.224-2.016V82.04Zm-4.736.8h3.104c-.15 1.024-.416 1.941-.8 2.752-.363.81-.95 1.515-1.76 2.112-.79.597-1.877 1.11-3.264 1.536-.17-.363-.437-.81-.8-1.344-.341-.512-.683-.917-1.024-1.216 1.13-.235 2.005-.523 2.624-.864.619-.363 1.067-.79 1.344-1.28a4.32 4.32 0 0 0 .576-1.696ZM65.64 65.272h7.968v2.368H65.64v-2.368Zm9.376 7.424h5.952v2.656h-5.952v-2.656Zm4.96-7.424h7.968v2.368h-7.968v-2.368Zm6.464-4.096h3.904V85.56c0 .853-.085 1.568-.256 2.144a2.343 2.343 0 0 1-.96 1.376c-.47.32-1.024.523-1.664.608-.64.085-1.397.128-2.272.128A7.767 7.767 0 0 0 85 88.568c-.085-.47-.203-.95-.352-1.44-.15-.47-.299-.864-.448-1.184.363.021.725.032 1.088.032.363 0 .619-.01.768-.032.256 0 .384-.15.384-.448v-24.32Zm-20.736 0h10.112v10.56H65.704v-2.592h6.528v-5.408h-6.528v-2.56Zm22.976 0v2.56h-7.2v5.408h7.2v2.592H77.832v-10.56H88.68Zm-25.024 0h3.808v28.64h-3.808v-28.64Zm14.656 11.52h3.136c.363.917.939 1.76 1.728 2.528a9.999 9.999 0 0 0 2.656 1.824c-.363.235-.79.565-1.28.992-.47.427-.832.8-1.088 1.12a13.276 13.276 0 0 1-2.72-2.208c-.81-.896-1.43-1.845-1.856-2.848h-.576v-1.408Zm-6.528.608 3.008.704c-.47 1.024-1.12 2.016-1.952 2.976-.832.96-1.728 1.728-2.688 2.304-.277-.277-.63-.597-1.056-.96-.427-.363-.8-.65-1.12-.864a8.464 8.464 0 0 0 2.336-1.856c.683-.768 1.173-1.536 1.472-2.304ZM95.24 62.456h27.488v3.456H95.24v-3.456Zm-.8 19.648h29.248v3.488H94.44v-3.488Zm12.448-22.272h3.968v30.08h-3.968v-30.08Zm-5.536 15.52v1.952h15.104v-1.952h-15.104Zm0-4.8v1.92h15.104v-1.92h-15.104Zm-3.712-3.104h22.688v12.96H97.64v-12.96Zm39.392 17.888h18.912v3.552h-18.912v-3.552Zm4.8-16.064h9.184v3.456h-9.184v-3.456Zm0 7.968h9.184v3.456h-9.184V77.24Zm-1.792-15.808h13.152v25.952h-3.872v-22.4h-5.568v22.4h-3.712V61.432Zm-9.184 1.376h3.648v27.04h-3.648v-27.04Zm-4.832 6.016h12.48v3.552h-12.48v-3.552Zm5.024 1.44 2.24.96a47.853 47.853 0 0 1-1.088 3.584 47.801 47.801 0 0 1-1.376 3.68 35.674 35.674 0 0 1-1.6 3.392c-.576 1.067-1.173 1.995-1.792 2.784a13.257 13.257 0 0 0-.832-1.856 21.51 21.51 0 0 0-.96-1.792c.725-.853 1.44-1.899 2.144-3.136a38.444 38.444 0 0 0 1.92-3.872c.576-1.344 1.024-2.592 1.344-3.744Zm5.568-10.176 2.144 3.136a34.684 34.684 0 0 1-3.616 1.088c-1.28.32-2.592.597-3.936.832-1.344.213-2.645.395-3.904.544-.064-.427-.203-.917-.416-1.472a23.94 23.94 0 0 0-.608-1.504 75.334 75.334 0 0 0 3.712-.672 73.324 73.324 0 0 0 3.584-.896 30.983 30.983 0 0 0 3.04-1.056Zm-2.112 12.672c.213.213.523.565.928 1.056.405.47.843.981 1.312 1.536.491.555.928 1.077 1.312 1.568.384.47.661.81.832 1.024l-2.24 3.008a25.53 25.53 0 0 0-.768-1.536 34.313 34.313 0 0 0-1.056-1.888 54.282 54.282 0 0 0-1.12-1.792 32.492 32.492 0 0 0-.896-1.44l1.696-1.536Zm49.152-12.768 1.984 2.336c-1.429.256-3.019.48-4.768.672-1.749.17-3.552.299-5.408.384-1.835.085-3.595.15-5.28.192a7.025 7.025 0 0 0-.288-1.216 8.171 8.171 0 0 0-.448-1.152c1.237-.043 2.507-.096 3.808-.16a108.8 108.8 0 0 0 3.872-.256 117.9 117.9 0 0 0 3.552-.352 35.964 35.964 0 0 0 2.976-.448Zm-15.808 4.672h19.392v2.688h-19.392v-2.688Zm1.088 4.128h17.248v2.656h-17.248v-2.656Zm6.496-6.88h3.68v8.032h-3.68v-8.032Zm-9.728-2.112 3.52 1.312a23.64 23.64 0 0 1-2.624 2.944 34.655 34.655 0 0 1-3.168 2.688 31.733 31.733 0 0 1-3.2 2.112 12.366 12.366 0 0 0-.8-.864 48.413 48.413 0 0 0-1.024-1.056 6.68 6.68 0 0 0-.96-.864 29.582 29.582 0 0 0 3.104-1.696 24.257 24.257 0 0 0 2.88-2.176c.896-.79 1.653-1.59 2.272-2.4Zm.576 18.336v1.28h13.824v-1.28H166.28Zm0 3.328v1.344h13.824v-1.344H166.28Zm0-6.656v1.28h13.824v-1.28H166.28Zm-3.712-2.176h21.44v12.352h-21.44V72.632Zm12.224 13.856 3.296-1.792c1.109.341 2.251.725 3.424 1.152 1.173.405 2.293.8 3.36 1.184 1.067.405 1.984.779 2.752 1.12l-4.64 1.728a34.064 34.064 0 0 0-2.176-1.088 71.815 71.815 0 0 0-2.88-1.184 107.073 107.073 0 0 0-3.136-1.12Zm-7.04-1.888 3.424 1.536a26.97 26.97 0 0 1-3.04 1.504c-1.152.49-2.336.939-3.552 1.344a35.976 35.976 0 0 1-3.456.992 11.458 11.458 0 0 0-.8-.928l-1.024-1.024a9.426 9.426 0 0 0-.96-.8 65.78 65.78 0 0 0 3.456-.672 48.408 48.408 0 0 0 3.296-.896 22.207 22.207 0 0 0 2.656-1.056Zm-4.96-19.04 2.368-2.4 1.248.352v8.192h-3.616V65.56Z"/>
</svg>
