<svg xmlns="http://www.w3.org/2000/svg" width="338" height="135" fill="none" viewBox="0 0 338 135">
  <path stroke="#C60302" stroke-width="4" d="M46.857 123.326C1.707 116.645 6.571 84.754 4 72.754 34 56.47-16.571 35.645 25.428 38.47c16.434-.717 22.723-1.297 25.826-2.824 98.46-34.033 130.112-39.234 190.066 6.662 42.141 1.686 68.995 10.338 82.899 19.979 7.56 5.242 9.429 9.09 9.781 13.304m0 0s-11.843 5.446-22.945 1.48c-11.103-3.965-17.024-14.784-17.024-14.784M334 75.59l-5.181 5.2c10.362 22.186-1.981 28.095-23.105 37.393-11.683 5.143-21.428 7.714-30.857 7.714"/>
  <path fill="#C60302" d="M87.28 92.2h20.56v4.6H87.28v-4.6Zm8.76 1.84h4.88v26.84c0 1.36-.16 2.4-.48 3.12-.32.747-.907 1.32-1.76 1.72-.827.373-1.893.613-3.2.72-1.28.107-2.827.147-4.64.12-.027-.453-.133-.973-.32-1.56a45.781 45.781 0 0 0-.6-1.76 12.357 12.357 0 0 0-.68-1.56l2.4.08c.8.027 1.493.04 2.08.04a33.96 33.96 0 0 1 1.28-.04c.373 0 .64-.053.8-.16.16-.133.24-.387.24-.76v-26.8Zm-23.88 7.24h12.92v3.64H72.16v-3.64Zm.24-11h12.72v3.6H72.4v-3.6Zm-.24 16.48h12.92v3.6H72.16v-3.6ZM70.2 95.64h16.44v3.8H70.2v-3.8Zm4.16 16.64h10.6v12.2h-10.6v-3.8h6.36v-4.6h-6.36v-3.8Zm-2.32 0h4.16v13.76h-4.16v-13.76Zm52.92.88v2.12h7.6v-2.12h-7.6Zm-3.72-2.72h15.24v7.6h-15.24v-7.6Zm8.16 6.36h3.92v4.44c0 .427.027.693.08.8.08.107.24.16.48.16h1.16c.16 0 .28-.053.36-.16.107-.133.187-.36.24-.68.053-.347.093-.88.12-1.6.347.32.853.613 1.52.88.693.24 1.307.413 1.84.52-.187 1.707-.56 2.867-1.12 3.48-.533.613-1.347.92-2.44.92h-2.4c-1.04 0-1.84-.133-2.4-.4-.533-.267-.893-.72-1.08-1.36-.187-.613-.28-1.453-.28-2.52v-4.48Zm-5.92 1h3.88c-.187 1.28-.52 2.427-1 3.44-.453 1.013-1.187 1.893-2.2 2.64-.987.747-2.347 1.387-4.08 1.92-.213-.453-.547-1.013-1-1.68-.427-.64-.853-1.147-1.28-1.52 1.413-.293 2.507-.653 3.28-1.08.773-.453 1.333-.987 1.68-1.6.373-.613.613-1.32.72-2.12Zm-8.68-21.96h9.96v2.96h-9.96v-2.96Zm11.72 9.28h7.44v3.32h-7.44v-3.32Zm6.2-9.28h9.96v2.96h-9.96v-2.96Zm8.08-5.12h4.88v30.48c0 1.067-.107 1.96-.32 2.68a2.933 2.933 0 0 1-1.2 1.72c-.587.4-1.28.653-2.08.76-.8.107-1.747.16-2.84.16a9.807 9.807 0 0 0-.24-1.56 16.007 16.007 0 0 0-.44-1.8 12.538 12.538 0 0 0-.56-1.48c.453.027.907.04 1.36.04.453 0 .773-.013.96-.04.32 0 .48-.187.48-.56v-30.4Zm-25.92 0h12.64v13.2h-12.64v-3.24h8.16v-6.76h-8.16v-3.2Zm28.72 0v3.2h-9v6.76h9v3.24h-13.56v-13.2h13.56Zm-31.28 0h4.76v35.8h-4.76v-35.8Zm18.32 14.4h3.92c.453 1.147 1.173 2.2 2.16 3.16 1.013.96 2.12 1.72 3.32 2.28-.453.293-.987.707-1.6 1.24-.587.533-1.04 1-1.36 1.4a16.61 16.61 0 0 1-3.4-2.76c-1.013-1.12-1.787-2.307-2.32-3.56h-.72v-1.76Zm-8.16.76 3.76.88c-.587 1.28-1.4 2.52-2.44 3.72-1.04 1.2-2.16 2.16-3.36 2.88a22.557 22.557 0 0 0-1.32-1.2c-.533-.453-1-.813-1.4-1.08a10.587 10.587 0 0 0 2.92-2.32c.853-.96 1.467-1.92 1.84-2.88Zm29.32-13.56h34.36v4.32H151.8v-4.32Zm-1 24.56h36.56v4.36H150.8v-4.36Zm15.56-27.84h4.96v37.6h-4.96v-37.6Zm-6.92 19.4v2.44h18.88v-2.44h-18.88Zm0-6v2.4h18.88v-2.4h-18.88Zm-4.64-3.88h28.36v16.2H154.8v-16.2Zm49.24 22.36h23.64v4.44h-23.64v-4.44Zm6-20.08h11.48v4.32h-11.48v-4.32Zm0 9.96h11.48v4.32h-11.48v-4.32Zm-2.24-19.76h16.44v32.44h-4.84v-28h-6.96v28h-4.64V91.04Zm-11.48 1.72h4.56v33.8h-4.56v-33.8Zm-6.04 7.52h15.6v4.44h-15.6v-4.44Zm6.28 1.8 2.8 1.2a59.87 59.87 0 0 1-1.36 4.48 60.006 60.006 0 0 1-1.72 4.6 44.41 44.41 0 0 1-2 4.24c-.72 1.333-1.467 2.493-2.24 3.48-.24-.693-.587-1.467-1.04-2.32a27.279 27.279 0 0 0-1.2-2.24c.907-1.067 1.8-2.373 2.68-3.92.88-1.547 1.68-3.16 2.4-4.84.72-1.68 1.28-3.24 1.68-4.68Zm6.96-12.72 2.68 3.92c-1.387.507-2.893.96-4.52 1.36-1.6.4-3.24.747-4.92 1.04-1.68.267-3.307.493-4.88.68-.08-.533-.253-1.147-.52-1.84-.267-.72-.52-1.347-.76-1.88 1.547-.24 3.093-.52 4.64-.84a91.87 91.87 0 0 0 4.48-1.12 38.698 38.698 0 0 0 3.8-1.32Zm-2.64 15.84c.267.267.653.707 1.16 1.32a264.74 264.74 0 0 1 1.64 1.92 42.9 42.9 0 0 1 1.64 1.96c.48.587.827 1.013 1.04 1.28l-2.8 3.76c-.24-.533-.56-1.173-.96-1.92-.4-.773-.84-1.56-1.32-2.36a68.73 68.73 0 0 0-1.4-2.24c-.427-.72-.8-1.32-1.12-1.8l2.12-1.92Zm61.44-15.96 2.48 2.92c-1.787.32-3.773.6-5.96.84-2.187.213-4.44.373-6.76.48a311.83 311.83 0 0 1-6.6.24 8.645 8.645 0 0 0-.36-1.52 10.207 10.207 0 0 0-.56-1.44c1.547-.053 3.133-.12 4.76-.2 1.653-.08 3.267-.187 4.84-.32s3.053-.28 4.44-.44a45.086 45.086 0 0 0 3.72-.56Zm-19.76 5.84h24.24v3.36h-24.24v-3.36Zm1.36 5.16h21.56v3.32h-21.56v-3.32Zm8.12-8.6h4.6v10.04h-4.6V91.64ZM239.88 89l4.4 1.64a29.556 29.556 0 0 1-3.28 3.68 43.118 43.118 0 0 1-3.96 3.36 39.608 39.608 0 0 1-4 2.64c-.24-.293-.573-.653-1-1.08a60.858 60.858 0 0 0-1.28-1.32 8.44 8.44 0 0 0-1.2-1.08c1.307-.613 2.6-1.32 3.88-2.12a30.321 30.321 0 0 0 3.6-2.72c1.12-.987 2.067-1.987 2.84-3Zm.72 22.92v1.6h17.28v-1.6H240.6Zm0 4.16v1.68h17.28v-1.68H240.6Zm0-8.32v1.6h17.28v-1.6H240.6Zm-4.64-2.72h26.8v15.44h-26.8v-15.44Zm15.28 17.32 4.12-2.24c1.387.427 2.813.907 4.28 1.44 1.467.507 2.867 1 4.2 1.48a68.75 68.75 0 0 1 3.44 1.4l-5.8 2.16c-.72-.4-1.627-.853-2.72-1.36a89.411 89.411 0 0 0-3.6-1.48c-1.28-.48-2.587-.947-3.92-1.4Zm-8.8-2.36 4.28 1.92c-1.093.64-2.36 1.267-3.8 1.88a58.962 58.962 0 0 1-4.44 1.68 44.74 44.74 0 0 1-4.32 1.24 14.11 14.11 0 0 0-1-1.16l-1.28-1.28a12 12 0 0 0-1.2-1c1.44-.24 2.88-.52 4.32-.84a60.61 60.61 0 0 0 4.12-1.12c1.28-.427 2.387-.867 3.32-1.32Zm-6.2-23.8 2.96-3 1.56.44v10.24h-4.52V96.2Z"/>
</svg>
