<svg xmlns="http://www.w3.org/2000/svg" width="228" height="106" fill="none" viewBox="0 0 228 106">
  <path stroke="#FF7000" stroke-width="4" d="M32.571 85.217C2.471 80.764 5.714 59.503 4 51.503c20-10.857-13.714-24.74 14.286-22.857 10.956-.478 15.148-.865 17.217-1.883 65.64-22.688 86.741-26.156 126.71 4.441 28.094 1.125 45.997 6.893 55.266 13.32 5.041 3.495 6.286 6.06 6.521 8.87m0 0s-7.895 3.63-15.297.986c-7.402-2.643-11.349-9.856-11.349-9.856M224 53.394l-3.454 3.466c6.908 14.79-1.321 18.73-15.403 24.929-7.789 3.428-14.286 5.142-20.572 5.142"/>
  <path fill="#ACACAC" d="M37.578 87V70.25h4.563V87h-4.563Zm2.281-18.906c-.687 0-1.265-.235-1.734-.703a2.283 2.283 0 0 1-.703-1.672c0-.656.234-1.214.703-1.672.469-.469 1.047-.703 1.734-.703.688 0 1.266.234 1.735.703a2.25 2.25 0 0 1 .703 1.672c0 .646-.234 1.203-.703 1.672-.469.468-1.047.703-1.735.703ZM45.594 87V64.453h9.312c1.688 0 3.13.287 4.328.86 1.209.572 2.13 1.4 2.766 2.484.646 1.073.969 2.365.969 3.875v.031c0 1.48-.37 2.797-1.11 3.953-.729 1.156-1.718 1.98-2.968 2.469L63.64 87h-5.344l-4.203-8.172h-3.782V87h-4.718Zm4.718-11.75h4.079c1.177 0 2.093-.313 2.75-.938.666-.635 1-1.505 1-2.609v-.031c0-1.084-.344-1.943-1.032-2.578-.687-.636-1.614-.953-2.78-.953h-4.017v7.109Zm22.86 12.094c-1.709 0-3.177-.35-4.406-1.047-1.23-.709-2.178-1.714-2.844-3.016-.656-1.302-.984-2.844-.984-4.625v-.015c0-1.782.328-3.323.984-4.625.666-1.313 1.599-2.323 2.797-3.032 1.208-.718 2.63-1.078 4.265-1.078 1.636 0 3.047.35 4.235 1.047 1.198.688 2.12 1.662 2.765 2.922.657 1.26.985 2.734.985 4.422v1.406H67.172v-2.875h11.64l-2.171 2.688v-1.75c0-.98-.151-1.797-.454-2.454-.302-.666-.724-1.166-1.265-1.5-.531-.333-1.151-.5-1.86-.5-.708 0-1.338.172-1.89.516-.542.344-.969.85-1.281 1.516-.303.656-.454 1.463-.454 2.422v1.765c0 .927.151 1.719.454 2.375.312.656.755 1.162 1.328 1.516.573.344 1.255.516 2.047.516.625 0 1.166-.1 1.625-.297a3.427 3.427 0 0 0 1.125-.75c.291-.303.49-.61.593-.922l.032-.094h4.187l-.047.172a6.115 6.115 0 0 1-.734 1.86 6.527 6.527 0 0 1-1.484 1.718c-.615.52-1.37.938-2.266 1.25-.885.313-1.927.469-3.125.469ZM83.328 87V70.25h4.563V73h.093a5.21 5.21 0 0 1 1.938-2.266c.854-.552 1.911-.828 3.172-.828 1.844 0 3.265.557 4.265 1.672 1.01 1.104 1.516 2.64 1.516 4.61V87h-4.563v-9.875c0-1.094-.26-1.938-.78-2.531-.511-.604-1.277-.906-2.298-.906-.677 0-1.265.156-1.765.468-.5.302-.89.73-1.172 1.281-.271.553-.406 1.198-.406 1.938V87h-4.563Zm25.094.344c-1.854 0-3.229-.39-4.125-1.172-.896-.781-1.344-2.068-1.344-3.86v-8.624h-2.328V70.25h2.328v-4.094h4.609v4.094h3.063v3.438h-3.063v8.124c0 .782.172 1.329.516 1.641.354.302.875.453 1.563.453.208 0 .39-.005.547-.015.156-.021.302-.042.437-.063v3.344c-.25.041-.563.078-.937.11-.365.04-.787.062-1.266.062Zm21.61-2.008h18.912v3.552h-18.912v-3.552Zm4.8-16.064h9.184v3.456h-9.184v-3.456Zm0 7.968h9.184v3.456h-9.184V77.24Zm-1.792-15.808h13.152v25.952h-3.872v-22.4h-5.568v22.4h-3.712V61.432Zm-9.184 1.376h3.648v27.04h-3.648v-27.04Zm-4.832 6.016h12.48v3.552h-12.48v-3.552Zm5.024 1.44 2.24.96a47.853 47.853 0 0 1-1.088 3.584 47.801 47.801 0 0 1-1.376 3.68 35.674 35.674 0 0 1-1.6 3.392c-.576 1.067-1.173 1.995-1.792 2.784a13.257 13.257 0 0 0-.832-1.856 21.51 21.51 0 0 0-.96-1.792c.725-.853 1.44-1.899 2.144-3.136a38.444 38.444 0 0 0 1.92-3.872c.576-1.344 1.024-2.592 1.344-3.744Zm5.568-10.176 2.144 3.136a34.684 34.684 0 0 1-3.616 1.088c-1.28.32-2.592.597-3.936.832-1.344.213-2.645.395-3.904.544-.064-.427-.203-.917-.416-1.472a23.94 23.94 0 0 0-.608-1.504 75.334 75.334 0 0 0 3.712-.672 73.324 73.324 0 0 0 3.584-.896 30.983 30.983 0 0 0 3.04-1.056Zm-2.112 12.672c.213.213.523.565.928 1.056.405.47.843.981 1.312 1.536.491.555.928 1.077 1.312 1.568.384.47.661.81.832 1.024l-2.24 3.008a25.53 25.53 0 0 0-.768-1.536 34.313 34.313 0 0 0-1.056-1.888 54.282 54.282 0 0 0-1.12-1.792 32.492 32.492 0 0 0-.896-1.44l1.696-1.536Zm24.736-10.304h27.488v3.456H152.24v-3.456Zm-.8 19.648h29.248v3.488H151.44v-3.488Zm12.448-22.272h3.968v30.08h-3.968v-30.08Zm-5.536 15.52v1.952h15.104v-1.952h-15.104Zm0-4.8v1.92h15.104v-1.92h-15.104Zm-3.712-3.104h22.688v12.96H154.64v-12.96Z"/>
</svg>
